<svg width="12" height="14" viewBox="0 0 12 14" fill="none" xmlns="http://www.w3.org/2000/svg">
<path d="M3.46875 0.258789C3.96524 -0.015413 4.45181 0.0831795 4.82031 0.394531C5.1925 0.709052 5.44333 1.24236 5.44336 1.82812V12.1719C5.44333 12.7576 5.1925 13.2909 4.82031 13.6055C4.45181 13.9168 3.96524 14.0154 3.46875 13.7412C2.8099 13.3773 2.2094 12.8424 1.70215 12.166C1.19491 11.4897 0.79111 10.6856 0.515625 9.79883C0.24014 8.91206 0.0986328 7.96085 0.0986328 7C0.0986328 6.03915 0.24014 5.08794 0.515625 4.20117C0.79111 3.31442 1.19491 2.51032 1.70215 1.83398C2.2094 1.15765 2.8099 0.622669 3.46875 0.258789Z" fill="#612B05" stroke="#8D3F01" stroke-width="0.1971"/>
<path d="M8.00977 0.258789C7.51328 -0.015413 7.0267 0.0831795 6.6582 0.394531C6.28601 0.709052 6.03519 1.24236 6.03516 1.82812V12.1719C6.03519 12.7576 6.28601 13.2909 6.6582 13.6055C7.0267 13.9168 7.51328 14.0154 8.00977 13.7412C8.66862 13.3773 9.26911 12.8424 9.77637 12.166C10.2836 11.4897 10.6874 10.6856 10.9629 9.79883C11.2384 8.91206 11.3799 7.96085 11.3799 7C11.3799 6.03915 11.2384 5.08794 10.9629 4.20117C10.6874 3.31442 10.2836 2.51032 9.77637 1.83398C9.26911 1.15765 8.66862 0.622669 8.00977 0.258789Z" fill="#612B05" stroke="#8D3F01" stroke-width="0.1971"/>
</svg>
