<svg width="15" height="18" viewBox="0 0 15 18" fill="none" xmlns="http://www.w3.org/2000/svg">
<path d="M4.45996 0.333008C5.09818 -0.0194734 5.72351 0.1067 6.19727 0.506836C6.67589 0.911232 6.99902 1.59734 6.99902 2.35059V15.6494C6.99902 16.4027 6.67588 17.0888 6.19727 17.4932C5.72351 17.8933 5.09818 18.0195 4.45996 17.667C3.61295 17.1992 2.84062 16.512 2.18848 15.6426C1.53631 14.773 1.01729 13.7387 0.663086 12.5986C0.308891 11.4585 0.126953 10.2354 0.126953 9C0.126953 7.76462 0.308891 6.5415 0.663086 5.40137C1.01729 4.26127 1.53631 3.22698 2.18848 2.35742C2.84062 1.48797 3.61295 0.800808 4.45996 0.333008Z" fill="#FFCDAB" stroke="#8D3F01" stroke-width="0.253414"/>
<path d="M10.2988 0.333008C9.6606 -0.0194734 9.03528 0.1067 8.56152 0.506836C8.0829 0.911232 7.75977 1.59734 7.75977 2.35059V15.6494C7.75977 16.4027 8.0829 17.0888 8.56152 17.4932C9.03527 17.8933 9.6606 18.0195 10.2988 17.667C11.1458 17.1992 11.9182 16.512 12.5703 15.6426C13.2225 14.773 13.7415 13.7387 14.0957 12.5986C14.4499 11.4585 14.6318 10.2354 14.6318 9C14.6318 7.76462 14.4499 6.5415 14.0957 5.40137C13.7415 4.26127 13.2225 3.22698 12.5703 2.35742C11.9182 1.48797 11.1458 0.800808 10.2988 0.333008Z" fill="#FFCDAB" stroke="#8D3F01" stroke-width="0.253414"/>
</svg>
