<svg width="23" height="56" viewBox="0 0 23 56" fill="none" xmlns="http://www.w3.org/2000/svg">
<path d="M8.29297 1.03613C6.30715 -0.0605061 4.36162 0.331876 2.8877 1.57715C1.39875 2.83519 0.394653 4.96924 0.394531 7.3125V48.6875C0.394653 51.0308 1.39875 53.1648 2.8877 54.4229C4.36162 55.6681 6.30715 56.0605 8.29297 54.9639C10.9283 53.5084 13.3313 51.3703 15.3604 48.665C17.3894 45.9596 19.0025 42.7416 20.1045 39.1943C21.2064 35.6473 21.7744 31.8433 21.7744 28C21.7744 24.1567 21.2064 20.3527 20.1045 16.8057C19.0025 13.2584 17.3894 10.0404 15.3604 7.33496C13.3313 4.6297 10.9283 2.4916 8.29297 1.03613Z" fill="#612B05" stroke="#8D3F01" stroke-width="0.7884"/>
</svg>
