<svg width="23" height="56" viewBox="0 0 23 56" fill="none" xmlns="http://www.w3.org/2000/svg">
<path d="M13.876 1.03613C15.8618 -0.0605061 17.8073 0.331876 19.2812 1.57715C20.7702 2.83519 21.7743 4.96924 21.7744 7.3125V48.6875C21.7743 51.0308 20.7702 53.1648 19.2812 54.4229C17.8073 55.6681 15.8618 56.0605 13.876 54.9639C11.2406 53.5084 8.8376 51.3703 6.80859 48.665C4.7795 45.9596 3.16644 42.7416 2.06445 39.1943C0.962547 35.6473 0.394531 31.8433 0.394531 28C0.394531 24.1567 0.962547 20.3527 2.06445 16.8057C3.16644 13.2584 4.7795 10.0404 6.80859 7.33496C8.8376 4.6297 11.2406 2.4916 13.876 1.03613Z" fill="#612B05" stroke="#8D3F01" stroke-width="0.7884"/>
</svg>
