<svg width="32" height="24" viewBox="0 0 32 24" fill="none" xmlns="http://www.w3.org/2000/svg">
<rect x="0.5" y="0.5" width="31" height="23" rx="11.5" fill="#FFFEFB"/>
<rect x="0.5" y="0.5" width="31" height="23" rx="11.5" stroke="#0F1312"/>
<path d="M12 8.79997V15.1234C12 16.0308 12 16.4844 12.1361 16.762C12.3883 17.2766 12.941 17.5723 13.5091 17.4968C13.8156 17.456 14.1931 17.2043 14.9481 16.701L14.9499 16.6998C15.2491 16.5003 15.3988 16.4005 15.5553 16.3452C15.8428 16.2436 16.1565 16.2436 16.444 16.3452C16.6009 16.4007 16.7511 16.5008 17.0515 16.7011C17.8065 17.2044 18.1844 17.4559 18.4909 17.4967C19.059 17.5722 19.6117 17.2766 19.8639 16.762C20 16.4844 20 16.0306 20 15.1234V8.79778C20 8.0525 20 7.67931 19.8548 7.39437C19.727 7.14349 19.5225 6.93966 19.2716 6.81183C18.9864 6.6665 18.6135 6.6665 17.8668 6.6665H14.1335C13.3867 6.6665 13.0131 6.6665 12.7279 6.81183C12.477 6.93966 12.2732 7.14349 12.1453 7.39437C12 7.67958 12 8.05323 12 8.79997Z" fill="#ADAFA4" stroke="#0F1312" stroke-width="2" stroke-linecap="round" stroke-linejoin="round"/>
</svg>
