<svg width="32" height="24" viewBox="0 0 32 24" fill="none" xmlns="http://www.w3.org/2000/svg">
<rect x="0.5" y="0.5" width="31" height="23" rx="11.5" fill="#FFCDAB"/>
<rect x="0.5" y="0.5" width="31" height="23" rx="11.5" stroke="#612B05"/>
<path d="M13.4688 5.25879C13.9652 4.98459 14.4518 5.08318 14.8203 5.39453C15.1925 5.70905 15.4433 6.24236 15.4434 6.82812V17.1719C15.4433 17.7576 15.1925 18.2909 14.8203 18.6055C14.4518 18.9168 13.9652 19.0154 13.4688 18.7412C12.8099 18.3773 12.2094 17.8424 11.7021 17.166C11.1949 16.4897 10.7911 15.6856 10.5156 14.7988C10.2401 13.9121 10.0986 12.9608 10.0986 12C10.0986 11.0392 10.2401 10.0879 10.5156 9.20117C10.7911 8.31442 11.1949 7.51032 11.7021 6.83398C12.2094 6.15765 12.8099 5.62267 13.4688 5.25879Z" fill="#612B05" stroke="#8D3F01" stroke-width="0.1971"/>
<path d="M18.0098 5.25879C17.5133 4.98459 17.0267 5.08318 16.6582 5.39453C16.286 5.70905 16.0352 6.24236 16.0352 6.82812V17.1719C16.0352 17.7576 16.286 18.2909 16.6582 18.6055C17.0267 18.9168 17.5133 19.0154 18.0098 18.7412C18.6686 18.3773 19.2691 17.8424 19.7764 17.166C20.2836 16.4897 20.6874 15.6856 20.9629 14.7988C21.2384 13.9121 21.3799 12.9608 21.3799 12C21.3799 11.0392 21.2384 10.0879 20.9629 9.20117C20.6874 8.31442 20.2836 7.51032 19.7764 6.83398C19.2691 6.15765 18.6686 5.62267 18.0098 5.25879Z" fill="#612B05" stroke="#8D3F01" stroke-width="0.1971"/>
</svg>
