<svg width="12" height="14" viewBox="0 0 12 14" fill="none" xmlns="http://www.w3.org/2000/svg">
<path d="M2.00033 2.66699V10.5337C2.00033 11.2804 2.00033 11.6535 2.14565 11.9387C2.27348 12.1896 2.47731 12.394 2.72819 12.5218C3.01313 12.667 3.38632 12.667 4.1316 12.667H7.86905C8.61433 12.667 8.98699 12.667 9.27192 12.5218C9.5228 12.394 9.72731 12.1896 9.85514 11.9387C10.0003 11.6538 10.0003 11.281 10.0003 10.5357V2.66699M2.00033 2.66699H3.33366M2.00033 2.66699H0.666992M3.33366 2.66699H8.66699M3.33366 2.66699C3.33366 2.04574 3.33366 1.73526 3.43515 1.49023C3.57048 1.16353 3.82987 0.903811 4.15658 0.768486C4.4016 0.666992 4.7124 0.666992 5.33366 0.666992H6.66699C7.28825 0.666992 7.59888 0.666992 7.8439 0.768486C8.17061 0.903811 8.4301 1.16353 8.56543 1.49023C8.66692 1.73526 8.66699 2.04574 8.66699 2.66699M8.66699 2.66699H10.0003M10.0003 2.66699H11.3337" stroke="#C22938" stroke-width="1.33333" stroke-linecap="round" stroke-linejoin="round"/>
</svg>
